<?xml version="1.0"?>
<svg xmlns="http://www.w3.org/2000/svg" id="Outline" viewBox="0 0 512 512" width="512" height="512"><path d="M448,135.809V104a8,8,0,0,0-8-8H410.422L378.041,74.412A31.994,31.994,0,1,0,328,48a8,8,0,0,0,16,0,16,16,0,1,1,16,16h0a7.992,7.992,0,0,0-4.438,1.344L309.578,96H280c-.1,0-.193.011-.29.015-.232,0-.462-.015-.694-.015H242.422L210.04,74.412A31.994,31.994,0,1,0,160,48a8,8,0,0,0,16,0,16,16,0,1,1,16,16h0a7.992,7.992,0,0,0-4.438,1.344L141.578,96H104.984a39.941,39.941,0,0,0-38.8,30.3q-.095.373-.152.755l-17.94,119.76A7.994,7.994,0,0,0,48,248V408a8,8,0,0,0,8,8h48a8,8,0,0,0,8-8v-8h48a8,8,0,0,0,8-8v-8h48v8a8,8,0,0,0,8,8h35.991l-3.983,87.637A8,8,0,0,0,264,496H456a8,8,0,0,0,7.992-8.363Zm-14.594,31.32c-6.223-1.783-10.783-6.326-13.838-13.755A47.5,47.5,0,0,1,416.88,144h15.475ZM432,128H318.114l-.142-.946q-.057-.381-.152-.755a39.964,39.964,0,0,0-6.8-14.3H432ZM360,81.615,381.578,96H338.422ZM262.675,112l-3.7,24.062a14.792,14.792,0,0,1-26.479,6.576A55.875,55.875,0,0,0,247.431,112Zm-109.87,0H231.2a40,40,0,0,1-78.39,0ZM192,81.615,213.578,96H170.422ZM136.569,112a55.875,55.875,0,0,0,14.937,30.638,14.792,14.792,0,0,1-26.479-6.576L121.325,112ZM152,384H112V232a8,8,0,0,0-16,0V400H64V248.6L81.791,129.833A23.964,23.964,0,0,1,104.984,112h.152l4.077,26.5a30.289,30.289,0,0,0,25.651,25.724,30.834,30.834,0,0,0,17.136-2.1Zm16-16V154.581a55.856,55.856,0,0,0,48,0V368Zm64-205.879a30.844,30.844,0,0,0,17.136,2.1A30.289,30.289,0,0,0,274.787,138.5l4.077-26.5h.152a23.964,23.964,0,0,1,23.193,17.833L320,248.6V400H288V232a8,8,0,0,0-16,0V384H232ZM352,480H272.372l2.977-65.5A7.949,7.949,0,0,0,280,416h48a8,8,0,0,0,8-8V248a7.994,7.994,0,0,0-.088-1.186L320.51,144H352Zm16,0V144h32.672a66.078,66.078,0,0,0,3.9,14.971c5.666,14.163,16.05,22.739,29.583,24.628L447.628,480Z"/></svg>
