<svg id="Layer_1" enable-background="new 0 0 256 256" height="512" viewBox="0 0 256 256" width="512" xmlns="http://www.w3.org/2000/svg"><g><g fill="#a58bc9"><path d="m64.948 175.63h-23.014c-1.381 0-2.5-1.119-2.5-2.5s1.119-2.5 2.5-2.5h23.015c1.381 0 2.5 1.119 2.5 2.5s-1.12 2.5-2.501 2.5z"/><path d="m79.275 85.37h-35.473c-1.381 0-2.5-1.119-2.5-2.5s1.119-2.5 2.5-2.5h35.473c1.381 0 2.5 1.119 2.5 2.5s-1.119 2.5-2.5 2.5z"/><path d="m110.628 85.37h-21.353c-1.381 0-2.5-1.119-2.5-2.5s1.119-2.5 2.5-2.5h21.353c1.381 0 2.5 1.119 2.5 2.5s-1.119 2.5-2.5 2.5z"/><path d="m105.232 115.457h-83.232c-1.381 0-2.5-1.119-2.5-2.5s1.119-2.5 2.5-2.5h83.232c1.381 0 2.5 1.119 2.5 2.5s-1.119 2.5-2.5 2.5z"/><path d="m105.232 145.543h-66.102c-1.381 0-2.5-1.119-2.5-2.5s1.119-2.5 2.5-2.5h66.102c1.381 0 2.5 1.119 2.5 2.5s-1.119 2.5-2.5 2.5z"/><path d="m105.232 175.63h-30.284c-1.381 0-2.5-1.119-2.5-2.5s1.119-2.5 2.5-2.5h30.284c1.381 0 2.5 1.119 2.5 2.5s-1.119 2.5-2.5 2.5z"/></g><path d="m110.903 77.866c-1.174 0-2.222-.832-2.452-2.028-.261-1.356.627-2.667 1.982-2.928.621-.12 1.276-.25 1.958-.387 6.05-1.211 13.58-2.717 19.1-.902 1.312.432 2.025 1.845 1.594 3.156-.432 1.312-1.848 2.023-3.156 1.594-4.271-1.405-11.371.017-16.556 1.054-.694.139-1.361.272-1.994.395-.16.031-.319.046-.476.046z" fill="#ebe7f2"/><path d="m110.903 91.928c-1.174 0-2.222-.832-2.452-2.028-.261-1.356.627-2.667 1.982-2.928.621-.12 1.276-.25 1.958-.387 6.05-1.211 13.58-2.716 19.1-.902 1.312.432 2.025 1.845 1.594 3.156-.432 1.312-1.848 2.023-3.156 1.594-4.271-1.406-11.371.017-16.556 1.054-.694.139-1.361.272-1.994.395-.16.031-.319.046-.476.046z" fill="#ebe7f2"/><g fill="#846f75"><path d="m218.355 97.148c-.728-.458-1.639-.51-2.413-.138l-12.896 6.188-12.896-6.188c-.684-.328-1.479-.328-2.163 0l-12.894 6.188-12.893-6.188c-.684-.328-1.48-.328-2.164 0l-12.888 6.188-12.892-6.188c-.685-.328-1.48-.328-2.164 0l-12.89 6.188-12.89-6.188c-.773-.371-1.685-.32-2.414.138-.727.458-1.168 1.257-1.168 2.116v108.349c0 1.381 1.119 2.5 2.5 2.5h111.792c1.381 0 2.5-1.119 2.5-2.5v-108.349c.001-.859-.44-1.658-1.167-2.116zm-100.233 11.078c.684.328 1.48.328 2.164 0l12.89-6.188 12.892 6.188c.685.328 1.48.328 2.164 0l12.888-6.188 12.894 6.188c.684.328 1.479.328 2.163 0l12.894-6.188 12.896 6.188c.683.328 1.479.328 2.163 0l10.396-4.989v98.186l-12.979-12.064c-.462-.43-1.071-.669-1.702-.669h-77.43c-.631 0-1.24.239-1.702.669l-12.979 12.064v-98.185zm93.027 96.887h-100.043l12.289-11.423h75.465z"/><path d="m110.879 95.93c.045 0 .091-.001.136-.003 1.379-.074 2.437-1.252 2.362-2.631-1.377-25.58 3.215-41.636 8.451-42.381 4.31-.614 11.717 9.28 17.593 29.365-2.787 2.989-4.298 7.185-3.779 11.613.077.665.21 1.406.394 2.207.272 1.183 1.338 2.078 2.551 2.021 1.615-.076 2.689-1.572 2.339-3.069-.152-.651-.259-1.236-.318-1.739-.604-5.15 2.942-9.814 7.904-10.396 2.092-.243 4.14.248 5.919 1.427 1.01.668 2.379.508 3.207-.376 1.459-1.557 3.337-2.51 5.429-2.756 4.961-.575 9.489 3.137 10.092 8.288.105.895.138 2.067.148 3.558.011 1.54-.25 3.078-.766 4.53-.526 1.276.081 2.738 1.357 3.265.312.129.635.189.953.189.982 0 1.914-.583 2.312-1.547l.948-2.298c.001-.003.003-.007.004-.01l4.121-9.99 4.257-2.795c1.093-.718 1.573-2.158.967-3.317-.696-1.333-2.367-1.746-3.593-.941l-4.428 2.907c-.806.529-1.434 1.289-1.802 2.181l-.237.574c-1.947-5.612-7.137-9.51-13.016-9.635.581-.314 1.148-.669 1.677-1.109 4.71-3.916 4.614-11.34 4.607-11.654-.024-1.167-.851-2.161-1.993-2.397-.308-.063-7.589-1.513-12.299 2.403-2.294 1.907-3.443 4.643-4.022 6.988-.497.078-.978.301-1.367.685-.968.955-.893 2.53-.008 3.562.882 1.027 1.473 2.248 1.776 3.597-1.571-.379-3.205-.484-4.827-.294-1.503.176-2.918.597-4.223 1.208-3.537-11.546-11.592-32.755-22.585-31.194-11.196 1.594-13.921 25.634-12.739 47.6.075 1.331 1.179 2.364 2.498 2.364zm48.697-30.673c1.585-1.318 4.041-1.598 5.909-1.566-.303 1.854-1.033 4.208-2.617 5.524-1.585 1.317-4.037 1.611-5.909 1.565.303-1.853 1.033-4.206 2.617-5.523z"/><path d="m187.406 77.352 20.689 8.534c.52.215 1.066.322 1.612.322.55 0 1.1-.109 1.624-.326 1.043-.434 1.854-1.248 2.285-2.292l1.935-4.691c.889-2.155-.142-4.631-2.296-5.521l-20.689-8.534c-2.152-.887-4.631.141-5.52 2.296l-1.935 4.69c-.431 1.044-.43 2.194.004 3.237.433 1.043 1.247 1.854 2.291 2.285zm3.967-7.592 19.261 7.945-1.346 3.264-19.261-7.945z"/><path d="m207.03 86.754c-1.351.284-2.216 1.61-1.931 2.961l1.145 5.438c.248 1.178 1.287 1.986 2.444 1.986.17 0 .344-.018.517-.054 1.351-.284 2.216-1.61 1.932-2.961l-1.145-5.439c-.284-1.351-1.607-2.214-2.962-1.931z"/></g><path d="m191.084 143h-11.86l-5.922-11.047c-.653-1.217-2.167-1.673-3.385-1.022-1.217.652-1.674 2.168-1.022 3.385l4.655 8.684h-24.656l4.655-8.685c.652-1.217.194-2.732-1.022-3.385-1.217-.652-2.732-.195-3.385 1.022l-5.921 11.048h-12.05c-1.381 0-2.5 1.119-2.5 2.5s1.119 2.5 2.5 2.5h5.496l3.68 24.523c.184 1.224 1.235 2.129 2.472 2.129h36.805c1.237 0 2.289-.905 2.472-2.129l3.68-24.523h5.307c1.381 0 2.5-1.119 2.5-2.5s-1.118-2.5-2.499-2.5zm-25.352 5-1.035 21.652h-6.951l-1.034-21.652zm-24.009 0h2.989.004.004 6.988l1.035 21.652h-7.769zm35.749 21.652h-7.768l1.034-21.652h6.988.004.004 2.988z" fill="#a58bc9"/></g></svg>