<svg id="Layer_1" data-name="Layer 1" xmlns="http://www.w3.org/2000/svg" viewBox="0 0 512 512"><defs><style>.cls-1{fill:#dde5e8;}.cls-2{fill:#198fd8;}.cls-3{fill:#afc3c9;}.cls-4{fill:#17292d;opacity:0.06;}</style></defs><title>cart-flat</title><path class="cls-1" d="M489.21,230.3l-3.57,17.85L479,281.52,445.24,450.24A77,77,0,0,1,369.93,512H142.07a77,77,0,0,1-75.31-61.77L33,281.52l-6.67-33.37L22.79,230.3Z"/><path class="cls-2" d="M460.8,153.47H51.2a51.22,51.22,0,0,0,0,102.44H460.8a51.22,51.22,0,0,0,0-102.44Z"/><path class="cls-3" d="M256,422.37a12.8,12.8,0,0,1-12.8-12.8V332.74a12.8,12.8,0,1,1,25.6,0v76.83A12.8,12.8,0,0,1,256,422.37Z"/><path class="cls-3" d="M192,422.37a12.8,12.8,0,0,1-12.8-12.8V332.74a12.8,12.8,0,1,1,25.6,0v76.83A12.8,12.8,0,0,1,192,422.37Z"/><path class="cls-3" d="M320,422.37a12.8,12.8,0,0,1-12.8-12.8V332.74a12.8,12.8,0,1,1,25.6,0v76.83A12.8,12.8,0,0,1,320,422.37Z"/><path class="cls-4" d="M460.8,255.91H51.2a50.87,50.87,0,0,1-27-7.76H21l5.12,33.37H479l6.38-31.89A50.87,50.87,0,0,1,460.8,255.91Z"/><path class="cls-3" d="M120.5,153.47,242.92,31a18.52,18.52,0,0,1,26.16,0L391.5,153.47h36.2L287.18,12.9a44.12,44.12,0,0,0-62.36,0L84.3,153.47Z"/></svg>