<svg id="Capa_1" enable-background="new 0 0 512 512" height="512" viewBox="0 0 512 512" width="512" xmlns="http://www.w3.org/2000/svg"><g><path d="m344.011 454.831c7.995 0 14.5-6.505 14.5-14.5v-44c0-7.995-6.505-14.5-14.5-14.5h-176.022c-7.995 0-14.5 6.505-14.5 14.5v44c0 7.995 6.505 14.5 14.5 14.5zm-175.522-58h175.021v43h-175.021z"/><path d="m444.02 487.878-19.657-320.552c-.243-3.956-3.522-7.041-7.486-7.041h-13.411v-88.791c0-9.212-1.887-18.119-5.607-26.474-1.687-3.784-6.12-5.484-9.903-3.8-3.783 1.686-5.484 6.119-3.8 9.903 2.86 6.421 4.311 13.274 4.311 20.37v88.791h-36.113c-.009-.029-.018-.058-.027-.087-4.305-14.689-11.578-27.072-20.797-36.177h6.292c14.245 0 25.835-11.59 25.835-25.835s-11.59-25.834-25.835-25.834l-49.598-.001v-.857c0-27.638 22.484-50.122 50.121-50.122 9.194.001 18.181 2.509 25.989 7.254 3.537 2.148 8.152 1.025 10.304-2.515 2.151-3.539 1.025-8.152-2.515-10.304-10.155-6.172-21.835-9.435-33.777-9.436-35.908 0-65.122 29.214-65.122 65.122v39.43c-.277.112-.552.227-.828.344-1.539-8.235-4.683-17.662-10.772-27.006-2.262-3.471-6.91-4.452-10.378-2.188-3.471 2.261-4.45 6.908-2.188 10.378 4.018 6.167 6.421 12.427 7.824 18.144-5.956-2.294-12.181-3.484-18.462-3.484-3.402 0-6.745.346-10.014.996-7.065-8.634-16.194-15.505-26.414-19.865v-40.797c4.013-1.854 6.81-5.906 6.81-10.609v-25.145c0-6.446-5.244-11.69-11.69-11.69h-44.002c-6.446 0-11.691 5.244-11.691 11.69v25.145c0 4.703 2.798 8.755 6.811 10.609v40.79c-25.382 10.754-41.907 35.845-41.907 63.321v8.73h-13.557c-3.985 0-7.274 3.116-7.489 7.096l-12.713 235.547c-.223 4.136 2.949 7.67 7.085 7.894 4.125.198 7.67-2.949 7.894-7.085l12.329-228.451h309.95l19.224 313.496c.009.147.014.295.014.441 0 4.288-4.006 7.777-8.929 7.777h-328.262c-4.923 0-8.929-3.488-8.929-7.776 0-.13.004-.26.01-.378l2.707-50.16c.223-4.136-2.949-7.67-7.085-7.894-4.124-.215-7.67 2.948-7.894 7.085l-2.708 50.173c-.021.393-.03.784-.03 1.174 0 12.558 10.735 22.776 23.929 22.776h328.262c13.194 0 23.929-10.218 23.929-22.777 0-.442-.013-.886-.04-1.345zm-155.798-380.582v-19.943h49.598c5.975 0 10.835 4.86 10.835 10.834 0 5.975-4.86 10.835-10.835 10.835h-31.474c-5.976-1.669-12.164-2.239-18.124-1.726zm-131.806-92.296h37.384v18.525h-37.384zm-35.097 136.555c0-22.95 14.706-43.669 36.779-51.027 3.063-1.021 5.128-3.887 5.128-7.115v-44.888h23.764v44.887c0 3.229 2.066 6.095 5.129 7.115 7.928 2.642 15.19 7.187 21.105 13.119-15.752 8.591-28.351 25.149-34.626 46.602-.004.013-.008.025-.012.037h-57.267zm73.031 8.73c8.131-22.883 25.354-38.174 44.068-38.174 7.068 0 13.859 2.049 20.227 6.086-.14 3.298-.508 5.313-.53 5.427-.815 4.048 1.796 7.996 5.845 8.827.509.104 1.016.155 1.516.155 3.486 0 6.61-2.445 7.339-5.994.079-.384.755-3.85.885-9.273 25.93-15.104 52.622 4.06 62.887 32.946z"/></g></svg>